<?xml version="1.0" encoding="utf-8"?>
<!-- Generator: Adobe Illustrator 21.0.0, SVG Export Plug-In . SVG Version: 6.00 Build 0)  -->
<svg version="1.1" id="Layer_2" xmlns="http://www.w3.org/2000/svg" xmlns:xlink="http://www.w3.org/1999/xlink" x="0px" y="0px"
	 viewBox="0 0 334 76" style="enable-background:new 0 0 334 76;" xml:space="preserve">
<style type="text/css">
	.st0{fill:#EAEAEA;}
	.st1{fill:#F7484D;}
</style>
<g>
	<polygon class="st0" points="334,14.4 318.7,37.2 334,60 	"/>
	<polygon class="st0" points="306.2,21.2 319.7,0 292.9,0 	"/>
	<polygon class="st0" points="320.2,76 305.8,53.4 291.3,76 	"/>
	<polygon class="st0" points="293.3,37.4 268.3,0 0,0 0,76 267.3,76 	"/>
</g>
<g>
	<path class="st1" d="M64.7,58l-3.9-9.5H42.9L39,58h-9.5l18.2-42.7h8.6L74.4,58H64.7z M51.8,26.5l-5.6,13.8h11.3L51.8,26.5z"/>
	<path class="st1" d="M93.1,67.9c-5.3,0-10.2-1.2-14.4-3.4l3.2-6.9c3.3,1.9,6.7,3,11,3c6.3,0,9.3-3,9.3-8.9v-1.6
		c-2.7,3.3-5.7,5.3-10.6,5.3c-7.6,0-14.4-5.5-14.4-15.2v-0.1c0-9.7,7-15.2,14.4-15.2c5,0,8,2.1,10.5,4.8v-4.2h9.2v25.2
		C111.2,62.9,105.1,67.9,93.1,67.9z M102.1,40.1c0-4.4-3.5-7.5-7.9-7.5s-7.9,3.1-7.9,7.5v0.1c0,4.5,3.4,7.5,7.9,7.5s7.9-3.1,7.9-7.5
		V40.1z"/>
	<path class="st1" d="M149.6,45H127c0.9,4.2,3.8,6.4,7.9,6.4c3.1,0,5.3-1,7.9-3.3l5.3,4.7c-3,3.8-7.4,6.1-13.3,6.1
		c-9.8,0-17-6.9-17-16.8v-0.1c0-9.3,6.6-16.9,16.1-16.9c10.9,0,15.8,8.4,15.8,17.6v0.1C149.7,43.6,149.7,44.1,149.6,45z M133.9,32.3
		c-3.8,0-6.3,2.7-7,6.9h13.9C140.2,35.1,137.8,32.3,133.9,32.3z"/>
	<path class="st1" d="M177.1,58V39.9c0-4.4-2.1-6.6-5.6-6.6c-3.5,0-5.8,2.2-5.8,6.6V58h-9.2V25.5h9.2v4.6c2.1-2.7,4.8-5.2,9.5-5.2
		c7,0,11,4.6,11,12.1v21H177.1z"/>
	<path class="st1" d="M209.7,58.8c-9.8,0-16.9-7.5-16.9-16.8v-0.1c0-9.3,7.1-16.9,17-16.9c6.1,0,9.9,2.1,13,5.5l-5.6,6.1
		c-2.1-2.2-4.1-3.6-7.4-3.6c-4.6,0-7.9,4.1-7.9,8.9v0.1c0,5,3.2,9,8.2,9c3.1,0,5.2-1.3,7.5-3.5l5.4,5.5
		C219.8,56.3,216.2,58.8,209.7,58.8z"/>
	<path class="st1" d="M247.1,58.8c-2.5,6.6-5.2,9.1-10.7,9.1c-3.3,0-5.8-0.8-8.2-2.2l3.1-6.7c1.2,0.7,2.7,1.3,3.9,1.3
		c1.6,0,2.4-0.5,3.2-2.1l-12.7-32.6h9.8l7.4,22.1l7.1-22.1h9.6L247.1,58.8z"/>
</g>
</svg>
